<svg xmlns="http://www.w3.org/2000/svg" viewBox="0 0 48 48"><linearGradient id="a" x1="836.805" x2="824.376" y1="-296.924" y2="-283.709" gradientTransform="matrix(3.0757 0 0 -3.0757 -2531.314 -869.632)" gradientUnits="userSpaceOnUse"><stop offset="0" stop-color="#5A5B5B"/><stop offset="1" stop-color="#656E84"/></linearGradient><path fill="url(#a)" d="M10.144 0h27.712C43.458 0 48 4.542 48 10.144v27.712C48 43.458 43.458 48 37.856 48H10.144C4.542 48 0 43.458 0 37.856V10.144C0 4.542 4.542 0 10.144 0z"/><path fill="#fff" d="M29.5 38.5v-1.29c0-.681.422-1.29 1.06-1.529l2.206-.827v-1.411M35.234 33.444v1.411l2.206.827c.637.239 1.06.848 1.06 1.529v1.29M24.034 18.498a3.372 3.372 0 0 1-3.367-3.368v-1.593h1v1.593c0 1.306 1.062 2.368 2.367 2.368s2.368-1.063 2.368-2.368v-1.593h1v1.593a3.37 3.37 0 0 1-3.368 3.368z"/><path fill="#fff" d="M21.92 17.573h1v1.297h-1zM25.214 17.573h1v1.297h-1zM26.903 14.412a.502.502 0 0 1-.39-.187l-.742-.922h-3.474l-.74.921a.499.499 0 1 1-.872-.18l-.491-1.796a1.577 1.577 0 0 1 .308-1.341 1.56 1.56 0 0 1 .765-.514 1.78 1.78 0 0 1 .586-.968 1.775 1.775 0 0 1 1.452-.4l3.106.519c.483.08.905.345 1.187.745.283.401.391.889.304 1.372l-.51 2.356a.5.5 0 0 1-.489.395zM23.011 10a.787.787 0 0 0-.512.188.788.788 0 0 0-.28.604c0 .276-.224.534-.5.534a.564.564 0 0 0-.552.685l.226.823.276-.344a.498.498 0 0 1 .39-.188h3.953c.151 0 .295.068.39.187l.235.293.285-1.316a.806.806 0 0 0-.141-.602.805.805 0 0 0-.533-.335l-3.106-.519a.988.988 0 0 0-.131-.01zM18.031 24.988a.5.5 0 0 1-.5-.5V22.78c0-.835.445-1.622 1.162-2.053l2.237-1.342a.5.5 0 1 1 .514.858l-2.236 1.342a1.403 1.403 0 0 0-.677 1.195v1.708a.5.5 0 0 1-.5.5zM30.031 24.988a.5.5 0 0 1-.5-.5V22.78c0-.486-.259-.944-.677-1.195l-2.235-1.342a.5.5 0 1 1 .514-.858l2.236 1.342a2.407 2.407 0 0 1 1.162 2.053v1.708a.5.5 0 0 1-.5.5z"/><path fill="#fff" d="M20.531 24.962c-.276 0-.5-.198-.5-.475 0-.399-.129-.732-.364-.988l-.395-.434a.499.499 0 1 1 .738-.674l.395.433c.403.44.626 1.014.626 1.613 0 .277-.223.525-.5.525zM27.527 24.962c-.276 0-.5-.198-.5-.475 0-.648.223-1.222.626-1.663l.395-.433a.499.499 0 1 1 .738.674l-.395.433a1.39 1.39 0 0 0-.364.939c0 .277-.223.525-.5.525zM22.458 21.892l-.027-.001a.496.496 0 0 1-.363-.187l-1.263-1.578a.5.5 0 0 1 .02-.647l.853-.946a.499.499 0 0 1 .586-.116l1.988.946a.5.5 0 0 1 .138.804l-1.578 1.578a.502.502 0 0 1-.354.147zm-.607-2.059l.648.811.683-.683-1.012-.482-.319.354z"/><path fill="#fff" d="M25.613 21.892a.505.505 0 0 1-.354-.146l-1.577-1.578a.501.501 0 0 1 .138-.804l1.987-.946a.499.499 0 0 1 .586.116l.853.946a.501.501 0 0 1 .02.647l-1.263 1.578a.502.502 0 0 1-.363.187h-.027zm-.723-1.931l.683.682.648-.81-.319-.354-1.012.482z"/><path fill="#fff" d="M24.027 24.988a.5.5 0 0 1-.5-.5v-4.694a.5.5 0 0 1 1 0v4.694a.5.5 0 0 1-.5.5zM24.031 31.5a.5.5 0 0 1-.5-.5v-4.5a.5.5 0 0 1 1 0V31c0 .277-.223.5-.5.5z"/><path fill="#fff" d="M19.031 34.5a.501.501 0 0 1-.257-.929l5-3a.5.5 0 1 1 .514.858l-5 3a.49.49 0 0 1-.257.071z"/><path fill="#fff" d="M29.031 34.5a.49.49 0 0 1-.257-.071l-5-3a.5.5 0 1 1 .514-.858l5 3a.5.5 0 0 1-.257.929zM13.989 34.36a2.544 2.544 0 0 1-2.541-2.541v-1.134h1v1.134c0 .85.691 1.541 1.541 1.541s1.541-.691 1.541-1.541v-1.134h1v1.134a2.543 2.543 0 0 1-2.541 2.541z"/><path fill="#fff" d="M16.031 31.305a.502.502 0 0 1-.413-.218l-.418-.612h-2.405l-.329.577a.48.48 0 0 1-.465.252.5.5 0 0 1-.431-.307l-.563-1.346c-.11-.473-.016-.868.231-1.175.151-.188.348-.325.566-.405.079-.283.238-.532.463-.723a1.47 1.47 0 0 1 1.189-.327l2.326.388c.396.066.741.283.973.612.23.328.317.726.246 1.12l-.489 1.795a.5.5 0 0 1-.481.369zm-2.817-3.304a.462.462 0 0 0-.3.111.46.46 0 0 0-.165.356c0 .276-.224.525-.5.525a.296.296 0 0 0-.291.36l.14.329a.497.497 0 0 1 .406-.209h2.96a.5.5 0 0 1 .368.162l.196-.717a.476.476 0 0 0-.09-.323.48.48 0 0 0-.318-.201l-2.326-.388a.763.763 0 0 0-.08-.005zM9.5 39a.5.5 0 0 1-.5-.5v-1.29c0-.884.557-1.687 1.384-1.997l1.882-.706v-1.063a.5.5 0 0 1 1 0v1.41a.5.5 0 0 1-.324.468l-2.206.827A1.14 1.14 0 0 0 10 37.21v1.29a.5.5 0 0 1-.5.5zM18.5 39a.5.5 0 0 1-.5-.5v-1.29c0-.47-.296-.896-.735-1.062l-2.207-.827a.499.499 0 0 1-.324-.468v-1.41a.5.5 0 0 1 1 0v1.063l1.883.706A2.147 2.147 0 0 1 19 37.21v1.29a.5.5 0 0 1-.5.5z"/><path fill="#fff" d="M14 36.32a1.736 1.736 0 0 1-1.734-1.734v-1.402h1v1.402a.734.734 0 0 0 1.467 0v-1.402h1v1.402c0 .955-.777 1.734-1.733 1.734zM33.989 34.36a2.544 2.544 0 0 1-2.541-2.541v-1.134h1v1.134c0 .85.691 1.541 1.541 1.541s1.541-.691 1.541-1.541v-1.134h1v1.134a2.543 2.543 0 0 1-2.541 2.541z"/><path fill="#fff" d="M36.031 31.305a.502.502 0 0 1-.413-.218l-.418-.612h-2.405l-.329.577a.483.483 0 0 1-.465.252.5.5 0 0 1-.431-.307l-.563-1.346c-.11-.473-.016-.868.231-1.175.151-.188.348-.325.566-.405.079-.283.238-.532.463-.723a1.471 1.471 0 0 1 1.189-.327l2.326.388c.396.066.741.283.973.612.23.328.317.726.246 1.12l-.489 1.795a.5.5 0 0 1-.481.369zm-2.817-3.304a.462.462 0 0 0-.3.111.46.46 0 0 0-.165.356c0 .276-.224.525-.5.525a.296.296 0 0 0-.291.36l.14.329a.497.497 0 0 1 .406-.209h2.96a.5.5 0 0 1 .368.162l.196-.717a.476.476 0 0 0-.09-.323.48.48 0 0 0-.318-.201l-2.326-.388a.763.763 0 0 0-.08-.005zM29.5 39a.5.5 0 0 1-.5-.5v-1.29c0-.884.557-1.687 1.384-1.997l1.882-.706v-1.063a.5.5 0 0 1 1 0v1.41a.5.5 0 0 1-.324.468l-2.206.827A1.14 1.14 0 0 0 30 37.21v1.29a.5.5 0 0 1-.5.5zM38.5 39a.5.5 0 0 1-.5-.5v-1.29c0-.47-.296-.896-.735-1.062l-2.207-.827a.499.499 0 0 1-.324-.468v-1.41a.5.5 0 0 1 1 0v1.063l1.883.706A2.147 2.147 0 0 1 39 37.21v1.29a.5.5 0 0 1-.5.5z"/><path fill="#fff" d="M34 36.32a1.736 1.736 0 0 1-1.734-1.734v-1.402h1v1.402a.734.734 0 0 0 1.467 0v-1.402h1v1.402c0 .955-.777 1.734-1.733 1.734z"/></svg>