<svg xmlns="http://www.w3.org/2000/svg" data-name="Layer 1" viewBox="0 0 512 512"><path fill="#676e87" d="M296.21 234.11h-80.42a7.5 7.5 0 0 1-7.5-7.5v-30.23a20.25 20.25 0 0 1 20.23-20.23h55a20.25 20.25 0 0 1 20.23 20.23v30.23a7.5 7.5 0 0 1-7.54 7.5Zm-72.92-15h65.42v-22.73a5.23 5.23 0 0 0-5.23-5.23h-55a5.23 5.23 0 0 0-5.23 5.23Z"/><rect width="155.01" height="116.74" x="178.49" y="211.61" fill="#ffc166" rx="11.52"/><path fill="#ffb74e" d="M322 211.61h-26.6a11.52 11.52 0 0 1 11.52 11.52v93.7a11.52 11.52 0 0 1-11.52 11.52H322a11.52 11.52 0 0 0 11.52-11.52v-93.7A11.52 11.52 0 0 0 322 211.61Z"/><path fill="#ffae36" d="m333.51 246.64-69.89 34.87a19.14 19.14 0 0 1-15.24 0l-69.89-34.87v-23.51A11.52 11.52 0 0 1 190 211.61h132a11.52 11.52 0 0 1 11.52 11.52Z"/><path fill="#ffa41f" d="M295.39 211.61a11.52 11.52 0 0 1 11.52 11.52v36.78l26.6-13.27v-23.51a11.48 11.48 0 0 0-2-6.44c-.21-.31-.43-.6-.66-.89a11.52 11.52 0 0 0-3.4-2.8c-.33-.18-.66-.34-1-.49a11.48 11.48 0 0 0-4.48-.9Z"/><rect width="31.35" height="31.35" x="240.32" y="267.42" fill="#676e87" rx="7"/><path fill="#595f74" d="M264.68 267.42h-14a7 7 0 0 1 7 7v17.35a7 7 0 0 1-7 7h14a7 7 0 0 0 7-7v-17.35a7 7 0 0 0-7-7Z"/><circle cx="256" cy="39.5" r="32" fill="#ffe966"/><circle cx="256" cy="472.5" r="32" fill="#ffe966"/><circle cx="72.91" cy="72.91" r="32" fill="#66c1ff"/><circle cx="439.09" cy="439.09" r="32" fill="#f66"/><circle cx="439.09" cy="72.91" r="32" fill="#66c1ff"/><circle cx="72.91" cy="439.09" r="32" fill="#f66"/><circle cx="472.5" cy="256" r="32" fill="#63ea86"/><circle cx="39.5" cy="256" r="32" fill="#63ea86"/><path fill="#dedede" d="M256 156a7.5 7.5 0 0 1-7.5-7.5v-47a7.5 7.5 0 0 1 15 0v47a7.5 7.5 0 0 1-7.5 7.5zm0 262a7.5 7.5 0 0 1-7.5-7.5v-47a7.5 7.5 0 0 1 15 0v47a7.5 7.5 0 0 1-7.5 7.5zM150 157.49a7.52 7.52 0 0 1-5.31-2.2l-33.23-33.23a7.5 7.5 0 1 1 10.61-10.61l33.23 33.23a7.51 7.51 0 0 1-5.3 12.81zm245.25 245.26a7.48 7.48 0 0 1-5.31-2.2l-33.23-33.23a7.5 7.5 0 0 1 10.61-10.61l33.23 33.23a7.51 7.51 0 0 1-5.3 12.81zM362 157.49a7.51 7.51 0 0 1-5.3-12.81l33.23-33.23a7.5 7.5 0 1 1 10.61 10.61l-33.23 33.23a7.52 7.52 0 0 1-5.31 2.2zM116.75 402.75a7.51 7.51 0 0 1-5.3-12.81l33.23-33.23a7.5 7.5 0 1 1 10.61 10.61l-33.23 33.23a7.48 7.48 0 0 1-5.31 2.2zM410.5 263.5h-47a7.5 7.5 0 0 1 0-15h47a7.5 7.5 0 0 1 0 15zm-262 0h-47a7.5 7.5 0 0 1 0-15h47a7.5 7.5 0 0 1 0 15z"/><path fill="#272a33" d="M72.91 112.41A39.5 39.5 0 1 0 45 100.84a39.24 39.24 0 0 0 27.91 11.57ZM55.59 55.59a24.49 24.49 0 1 1-7.18 17.32 24.32 24.32 0 0 1 7.18-17.32ZM362 157.49a7.52 7.52 0 0 0 5.31-2.2l33.23-33.23a7.5 7.5 0 1 0-10.61-10.61l-33.23 33.23a7.51 7.51 0 0 0 5.3 12.81ZM94 256a7.5 7.5 0 0 0 7.5 7.5h47a7.5 7.5 0 0 0 0-15h-47A7.5 7.5 0 0 0 94 256ZM256 79a39.5 39.5 0 1 0-39.5-39.5A39.55 39.55 0 0 0 256 79Zm0-64a24.5 24.5 0 1 1-24.5 24.5A24.53 24.53 0 0 1 256 15Zm107.5 233.5a7.5 7.5 0 0 0 0 15h47a7.5 7.5 0 0 0 0-15Zm-115-147v47a7.5 7.5 0 0 0 15 0v-47a7.5 7.5 0 0 0-15 0Zm190.59 10.91a39.5 39.5 0 1 0-27.93-11.57 39.24 39.24 0 0 0 27.93 11.57Zm-17.33-56.82a24.5 24.5 0 1 1 0 34.65 24.34 24.34 0 0 1 0-34.65ZM144.68 356.71l-33.23 33.23a7.5 7.5 0 1 0 10.61 10.61l33.23-33.23a7.5 7.5 0 1 0-10.61-10.61Zm255.87 33.23-33.23-33.23a7.5 7.5 0 0 0-10.61 10.61l33.23 33.23a7.5 7.5 0 0 0 10.61-10.61Zm10.61 21.22a39.5 39.5 0 1 0 55.86 0 39.54 39.54 0 0 0-55.86 0Zm45.25 45.25a24.49 24.49 0 1 1 7.18-17.32 24.32 24.32 0 0 1-7.18 17.32ZM322 204.11h-18.29v-7.73a20.25 20.25 0 0 0-20.23-20.23h-55a20.25 20.25 0 0 0-20.23 20.23v7.73H190a19 19 0 0 0-19 19v93.7a19 19 0 0 0 19 19h132a19 19 0 0 0 19-19v-93.7a19 19 0 0 0-19-19Zm-98.7-7.73a5.23 5.23 0 0 1 5.23-5.23h55a5.23 5.23 0 0 1 5.23 5.23v7.73h-65.47ZM326 316.83a4 4 0 0 1-4 4H190a4 4 0 0 1-4-4v-58.07l46.83 23.37v9.64a14.52 14.52 0 0 0 14.5 14.5h17.36a14.52 14.52 0 0 0 14.5-14.5v-9.64L326 258.76Zm-78.19-25.56v-16.35h16.36v16.35ZM326 242l-49.18 24.54a14.49 14.49 0 0 0-12.15-6.62h-17.35a14.49 14.49 0 0 0-12.15 6.62L186 242v-18.87a4 4 0 0 1 4-4h132a4 4 0 0 1 4 4Zm146.5-25.5A39.5 39.5 0 1 0 512 256a39.55 39.55 0 0 0-39.5-39.5Zm0 64A24.5 24.5 0 1 1 497 256a24.53 24.53 0 0 1-24.5 24.5ZM79 256a39.5 39.5 0 1 0-39.5 39.5A39.55 39.55 0 0 0 79 256Zm-64 0a24.5 24.5 0 1 1 24.5 24.5A24.53 24.53 0 0 1 15 256Zm248.5 154.5v-47a7.5 7.5 0 0 0-15 0v47a7.5 7.5 0 0 0 15 0Zm-141.44-299a7.5 7.5 0 1 0-10.61 10.61l33.23 33.23a7.5 7.5 0 1 0 10.61-10.61ZM45 411.16a39.5 39.5 0 1 0 55.86 0 39.24 39.24 0 0 0-55.86 0Zm45.26 45.25a24.49 24.49 0 1 1 0-34.65 24.34 24.34 0 0 1-.02 34.65ZM256 433a39.5 39.5 0 1 0 39.5 39.5A39.55 39.55 0 0 0 256 433Zm0 64a24.5 24.5 0 1 1 24.5-24.5A24.53 24.53 0 0 1 256 497Z"/></svg>